<?xml version="1.0" standalone="no"?>
<!DOCTYPE svg PUBLIC "-//W3C//DTD SVG 20010904//EN"
 "http://www.w3.org/TR/2001/REC-SVG-20010904/DTD/svg10.dtd">
<svg version="1.0" xmlns="http://www.w3.org/2000/svg" viewBox="0 0 512.000000 512.000000"
 preserveAspectRatio="xMidYMid meet">

<g transform="translate(0.000000,512.000000) scale(0.100000,-0.100000)"
fill="#000000" stroke="none">
<path d="M2443 5106 c-90 -22 -164 -65 -239 -140 -105 -107 -146 -206 -146
-356 1 -381 405 -619 743 -439 236 126 330 422 210 664 -106 213 -342 326
-568 271z"/>
<path d="M1871 3899 c-172 -34 -318 -182 -351 -358 -6 -34 -10 -341 -10 -823
0 -671 2 -773 15 -806 31 -73 89 -114 164 -115 65 -1 118 28 152 82 l29 45 0
643 0 643 24 15 c19 13 39 13 58 1 2 0 5 -678 8 -1506 l5 -1505 21 -45 c47
-99 143 -160 254 -160 111 1 206 62 251 163 l24 52 3 872 c3 856 3 873 22 883
14 8 26 8 40 0 19 -10 19 -27 22 -888 l3 -877 28 -57 c62 -125 195 -183 332
-144 45 14 69 29 110 70 92 92 85 -45 85 1642 0 1334 2 1484 16 1498 19 20 24
20 52 0 l22 -15 0 -640 c0 -618 1 -641 20 -679 54 -107 204 -127 287 -38 54
58 53 35 53 866 0 482 -4 789 -10 823 -34 180 -179 325 -359 359 -66 12 -1306
12 -1370 -1z"/>
</g>
</svg>
