<?xml version="1.0" standalone="no"?>
<!DOCTYPE svg PUBLIC "-//W3C//DTD SVG 20010904//EN"
 "http://www.w3.org/TR/2001/REC-SVG-20010904/DTD/svg10.dtd">
<svg version="1.0" xmlns="http://www.w3.org/2000/svg"
 width="512.000000pt" height="512.000000pt" viewBox="0 0 512.000000 512.000000"
 preserveAspectRatio="xMidYMid meet">

<g transform="translate(0.000000,512.000000) scale(0.100000,-0.100000)"
fill="#000000" stroke="none">
<path d="M2440 5101 c-350 -94 -474 -527 -227 -789 189 -199 496 -205 688 -13
94 95 141 209 140 345 -1 220 -148 404 -368 461 -74 19 -152 18 -233 -4z"/>
<path d="M1915 3968 c-42 -15 -81 -44 -105 -78 -22 -31 -531 -1470 -556 -1570
-8 -30 -11 -71 -7 -90 33 -191 272 -255 388 -104 22 28 68 147 160 412 l130
372 3 -69 c3 -65 -9 -109 -163 -633 -121 -409 -165 -572 -161 -596 8 -51 43
-99 90 -121 34 -17 62 -21 144 -21 l101 0 3 -643 3 -642 27 -47 c121 -204 416
-170 483 56 12 41 15 149 15 634 l0 584 29 29 c37 36 79 38 118 5 l28 -24 5
-609 c6 -679 2 -648 78 -726 48 -50 102 -77 167 -84 105 -11 215 53 261 151
l24 51 0 633 0 632 102 0 c82 0 110 4 144 21 47 22 82 70 90 121 4 24 -40 187
-161 596 -154 524 -166 568 -163 633 l3 69 130 -372 c92 -265 138 -384 160
-412 116 -151 355 -87 388 104 4 19 1 60 -7 90 -7 30 -131 390 -274 799 -175
497 -270 755 -288 778 -15 19 -50 46 -78 59 l-51 24 -615 -1 c-407 0 -625 -4
-645 -11z"/>
</g>
</svg>
