<svg xmlns="http://www.w3.org/2000/svg" xmlns:xlink="http://www.w3.org/1999/xlink" viewBox="0 0 48 48" width="48px" height="48px"><defs><radialGradient id="xJ87dL7_S5tUk7EaIsgF4s" cx="22.048" cy="1.232" r="5.539" xlink:href="#xJ87dL7_S5tUk7EaIsgF4d"/><radialGradient id="xJ87dL7_S5tUk7EaIsgF4a" cx="33.401" cy="46.398" r="2.821" gradientTransform="matrix(1 0 0 .64681 0 16.387)" gradientUnits="userSpaceOnUse"><stop offset=".002" stop-color="#3a434a"/><stop offset="1" stop-color="#1c2024"/></radialGradient><radialGradient id="xJ87dL7_S5tUk7EaIsgF4G" cx="29.288" cy="13.778" r="5.589" gradientTransform="matrix(.8042 .59437 -.4667 .63147 12.165 -12.33)" xlink:href="#xJ87dL7_S5tUk7EaIsgF4f"/><radialGradient id="xJ87dL7_S5tUk7EaIsgF4i" cx="-146.446" cy="-179.174" r="2.88" gradientTransform="rotate(7.727 -1706.438 1114.253)" xlink:href="#xJ87dL7_S5tUk7EaIsgF4a"/><radialGradient id="xJ87dL7_S5tUk7EaIsgF4j" cx="-146.968" cy="-177.578" r="3.324" gradientTransform="rotate(7.727 -1706.438 1114.253)" gradientUnits="userSpaceOnUse"><stop offset=".516" stop-color="#ccc"/><stop offset=".789" stop-color="#b9bec1"/><stop offset=".992" stop-color="#a7b2b8"/></radialGradient><radialGradient id="xJ87dL7_S5tUk7EaIsgF4b" cx="15.381" cy="36.674" r="7.474" gradientTransform="matrix(.3228 -.94647 .5031 .17159 -8.035 44.939)" gradientUnits="userSpaceOnUse"><stop offset="0" stop-color="#4c5185"/><stop offset=".705" stop-color="#2d447e"/><stop offset="1" stop-color="#203469"/></radialGradient><radialGradient id="xJ87dL7_S5tUk7EaIsgF4k" cx="18.9" cy="30.259" r="9.316" gradientTransform="rotate(-53.662 33.134 23.06) scale(1 .52413)" xlink:href="#xJ87dL7_S5tUk7EaIsgF4b"/><radialGradient id="xJ87dL7_S5tUk7EaIsgF4l" cx="23.51" cy="13.153" r="2.658" gradientUnits="userSpaceOnUse"><stop offset="0" stop-color="#ffd226"/><stop offset=".325" stop-color="#fdcd23"/><stop offset=".73" stop-color="#f6bd1b"/><stop offset=".999" stop-color="#f0af13"/></radialGradient><radialGradient id="xJ87dL7_S5tUk7EaIsgF4c" cx="23.161" cy="8.461" r="3.706" data-name="New Gradient Swatch 1" gradientTransform="matrix(.75386 -.65703 .48374 .55503 1.608 18.982)" gradientUnits="userSpaceOnUse"><stop offset="0" stop-color="#8c6239" stop-opacity=".9"/><stop offset="1" stop-color="#8c6239" stop-opacity="0"/></radialGradient><radialGradient id="xJ87dL7_S5tUk7EaIsgF4e" cx="19.854" cy="6.886" r="4.355" gradientTransform="matrix(-.00024 -1 .9442 -.00023 13.358 26.741)" gradientUnits="userSpaceOnUse"><stop offset="0" stop-color="#ffe16e"/><stop offset=".393" stop-color="#ffd226"/><stop offset=".59" stop-color="#fdcd23"/><stop offset=".836" stop-color="#f6bd1b"/><stop offset=".999" stop-color="#f0af13"/></radialGradient><radialGradient id="xJ87dL7_S5tUk7EaIsgF4F" cx="29.334" cy="15.068" r="4.463" gradientTransform="matrix(.76311 .64626 -.36056 .42575 12.382 -10.305)" xlink:href="#xJ87dL7_S5tUk7EaIsgF4e"/><radialGradient id="xJ87dL7_S5tUk7EaIsgF4E" cx="34.232" cy="-23.017" r="5.245" gradientTransform="matrix(-.05534 -.89481 .49551 -.02461 47.531 51.286)" xlink:href="#xJ87dL7_S5tUk7EaIsgF4e"/><radialGradient id="xJ87dL7_S5tUk7EaIsgF4o" cx="20.171" cy="6.925" r=".242" gradientUnits="userSpaceOnUse"><stop offset="0" stop-color="#1c1911"/><stop offset=".999" stop-color="#171714"/></radialGradient><radialGradient id="xJ87dL7_S5tUk7EaIsgF4d" cx="-736.869" cy="-1154.729" r="3.615" gradientTransform="matrix(.2301 .97314 -.50368 .11706 -382.417 857.682)" gradientUnits="userSpaceOnUse"><stop offset="0" stop-color="#8c6239"/><stop offset=".314" stop-color="#754c25"/><stop offset=".554" stop-color="#603813"/><stop offset="1" stop-color="#573210"/></radialGradient><radialGradient id="xJ87dL7_S5tUk7EaIsgF4p" cx="-736.812" cy="-1157.618" r="4.153" gradientTransform="matrix(-.54174 .76404 -1.09338 -.961 -1635.89 -546.896)" gradientUnits="userSpaceOnUse"><stop offset="0" stop-color="#603813"/><stop offset=".289" stop-color="#653c17"/><stop offset=".615" stop-color="#724923"/><stop offset=".957" stop-color="#895f36"/><stop offset="1" stop-color="#8c6239"/></radialGradient><radialGradient id="xJ87dL7_S5tUk7EaIsgF4q" cx="-198.533" cy="-1157.461" r="1.354" gradientTransform="matrix(.85272 -.52237 .27906 .45554 518.92 426.937)" gradientUnits="userSpaceOnUse"><stop offset=".002" stop-color="#f5432c"/><stop offset="1" stop-color="#cf3925"/></radialGradient><radialGradient id="xJ87dL7_S5tUk7EaIsgF4f" cx="21.13" cy="18.915" r="9.971" gradientTransform="matrix(.17676 -.98425 .55475 .09962 6.902 37.828)" gradientUnits="userSpaceOnUse"><stop offset=".002" stop-color="#aa6ce6"/><stop offset=".621" stop-color="#8f5ac0"/><stop offset=".977" stop-color="#844bb8"/></radialGradient><radialGradient id="xJ87dL7_S5tUk7EaIsgF4g" cx="33.945" cy="46.644" r="2.548" gradientUnits="userSpaceOnUse"><stop offset="0" stop-color="#f2f2f2"/><stop offset=".516" stop-color="#ccc"/><stop offset=".789" stop-color="#b9bec1"/><stop offset=".992" stop-color="#a7b2b8"/></radialGradient><radialGradient id="xJ87dL7_S5tUk7EaIsgF4t" cx="15.184" cy="27.449" r="2.347" xlink:href="#xJ87dL7_S5tUk7EaIsgF4e"/><radialGradient id="xJ87dL7_S5tUk7EaIsgF4B" cx="30.526" cy="28.449" r="2.115" xlink:href="#xJ87dL7_S5tUk7EaIsgF4e"/><radialGradient id="xJ87dL7_S5tUk7EaIsgF4v" cx="12.183" cy="27.06" r="3.119" gradientTransform="matrix(.7663 -.6425 .49422 .58945 -10.527 18.937)" xlink:href="#xJ87dL7_S5tUk7EaIsgF4e"/><radialGradient id="xJ87dL7_S5tUk7EaIsgF4w" cx="17.341" cy="21.543" r="4.313" gradientTransform="matrix(.65305 -.75732 .40707 .35102 -2.753 27.114)" xlink:href="#xJ87dL7_S5tUk7EaIsgF4e"/><radialGradient id="xJ87dL7_S5tUk7EaIsgF4x" cx="18.386" cy="17.665" r="4.115" gradientTransform="rotate(-102.158 21.318 14.035) scale(1 .58895)" xlink:href="#xJ87dL7_S5tUk7EaIsgF4e"/><radialGradient id="xJ87dL7_S5tUk7EaIsgF4y" cx="36.31" cy="33.383" r="4.668" xlink:href="#xJ87dL7_S5tUk7EaIsgF4e"/><radialGradient id="xJ87dL7_S5tUk7EaIsgF4z" cx="36.326" cy="33.383" r="4.668" xlink:href="#xJ87dL7_S5tUk7EaIsgF4e"/><radialGradient id="xJ87dL7_S5tUk7EaIsgF4H" cx="35.329" cy="26.205" r="3.081" gradientTransform="matrix(.39013 .92076 -.7234 .30651 40.503 -14.356)" xlink:href="#xJ87dL7_S5tUk7EaIsgF4e"/><linearGradient id="xJ87dL7_S5tUk7EaIsgF4A" x1="35.566" x2="34.517" y1="30.908" y2="28.868" data-name="New Gradient Swatch 2" xlink:href="#xJ87dL7_S5tUk7EaIsgF4c"/><linearGradient id="xJ87dL7_S5tUk7EaIsgF4u" x1="11.871" x2="13.211" y1="25.173" y2="28.065" data-name="New Gradient Swatch 2" xlink:href="#xJ87dL7_S5tUk7EaIsgF4c"/><linearGradient id="xJ87dL7_S5tUk7EaIsgF4C" x1="33.866" x2="31.797" y1="26.717" y2="27.882" data-name="New Gradient Swatch 2" xlink:href="#xJ87dL7_S5tUk7EaIsgF4c"/><linearGradient id="xJ87dL7_S5tUk7EaIsgF4r" x1="-197.953" x2="-198.298" y1="-1156.61" y2="-1157.342" gradientTransform="rotate(-14.21 4570.612 -1480.238)" gradientUnits="userSpaceOnUse"><stop offset="0" stop-color="#851e1e" stop-opacity=".3"/><stop offset=".073" stop-color="#5f1e1d" stop-opacity=".192"/><stop offset=".184" stop-color="#3a1d1c" stop-opacity=".083"/><stop offset=".317" stop-color="#241d1b" stop-opacity=".019"/><stop offset=".533" stop-color="#1d1d1b" stop-opacity="0"/></linearGradient><linearGradient id="xJ87dL7_S5tUk7EaIsgF4D" x1="30.535" x2="23.926" y1="24.728" y2="18.119" data-name="Безымянный градиент 16" gradientUnits="userSpaceOnUse"><stop offset="0" stop-color="#251047" stop-opacity=".3"/><stop offset=".392" stop-color="#211632" stop-opacity=".159"/><stop offset="1" stop-color="#1d1d1b" stop-opacity="0"/></linearGradient><linearGradient id="xJ87dL7_S5tUk7EaIsgF4n" x1="19.996" x2="20.636" y1="6.923" y2="6.923" gradientUnits="userSpaceOnUse"><stop offset="0" stop-color="#c69c6d"/><stop offset="1" stop-color="#754c24"/></linearGradient><linearGradient id="xJ87dL7_S5tUk7EaIsgF4m" x1="24.119" x2="25.067" y1="8.588" y2="7.448" xlink:href="#xJ87dL7_S5tUk7EaIsgF4c"/><linearGradient id="xJ87dL7_S5tUk7EaIsgF4h" x1="25.779" x2="34.446" y1="29.18" y2="40.726" data-name="Безымянный градиент 13" gradientUnits="userSpaceOnUse"><stop offset="0" stop-color="#172a4f"/><stop offset="1" stop-color="#2d447e"/></linearGradient></defs><path fill="url(#xJ87dL7_S5tUk7EaIsgF4a)" d="M36.34433,41.36729l-.007-.01166a1.66206,1.66206,0,0,0-1.87774-.89166,1.8118,1.8118,0,0,0-1.01988,1.14692,3.81872,3.81872,0,0,0-.24476,1.6015,8.58354,8.58354,0,0,1-.01166,1.83112,2.85422,2.85422,0,0,0-.48955.25526,1.354,1.354,0,0,0-.63989,1.01871c.00233.26808.16318.49537.5618.5688a7.70337,7.70337,0,0,0,2.0654.07576c.11306-.00582.218-.01515.31121-.02214.86718-.06644.97324-.26226,1.20752-1.063a10.35241,10.35241,0,0,0,.17135-2.0724A4.53871,4.53871,0,0,0,36.34433,41.36729Z"/><path fill="url(#xJ87dL7_S5tUk7EaIsgF4g)" d="M36.37115,43.8045a10.35241,10.35241,0,0,1-.17135,2.0724c-.23428.80074-.34034.99656-1.20752,1.063-.09325.007-.19815.01632-.31121.02214a7.70337,7.70337,0,0,1-2.0654-.07576c-.39862-.07343-.55947-.30072-.5618-.5688a.44356.44356,0,0,0,.07109.05245,1.475,1.475,0,0,0,.56415.17018q.27449.03495.549.049a7.527,7.527,0,0,0,.91731-.00466,1.919,1.919,0,0,0,1.26931-.44525,1.1464,1.1464,0,0,0,.21446-.30655,2.51229,2.51229,0,0,0,.11074-1.41267,3.01279,3.01279,0,0,1,.05711-1.78449,6.18956,6.18956,0,0,0,.46623-.7926,1.74755,1.74755,0,0,0,.0641-.48721l.007.01166A4.53871,4.53871,0,0,1,36.37115,43.8045Z"/><path fill="url(#xJ87dL7_S5tUk7EaIsgF4h)" d="M35.786,41.61519c-.021.03148-.04429.063-.06876.09559a5.30915,5.30915,0,0,1-.77394.80773c-.43011.37415-1.71107,1.26-2.75075.13987l-.035-.03962-.11305-.13055-4.56323-5.24858a2.30452,2.30452,0,0,1-.55248-.69468l-.1795-.352L23.614,30.09584a2.92811,2.92811,0,1,1,5.20778-2.67849,3.003,3.003,0,0,1,.18416.44175l.1527.48488,1.936,6.12625,4.41169,5.10638.10841.12589.19.22028A1.27025,1.27025,0,0,1,35.786,41.61519Z"/><path fill="#172a4f" d="M35.786,41.61519c-.021.03148-.04429.063-.06876.09559-.88-.8299-1.68542-1.74254-2.47335-2.63421A36.8708,36.8708,0,0,0,30.506,36.19528a1.153,1.153,0,0,1-.2541-.29023,1.1242,1.1242,0,0,1-.09907-.33452,1.67794,1.67794,0,0,0-.0443-.197c-.04778-.15385-.17833-.29721-.31587-.2704l-.09092.01748.02332-.08975a2.63912,2.63912,0,0,0-.52684-1.89522l-.08508-.15269a20.76858,20.76858,0,0,1-1.56421-4.12729l.11189-.0338A20.64932,20.64932,0,0,0,29.2157,32.927l.08392.15153a2.89086,2.89086,0,0,1,.55714,1.90572.48409.48409,0,0,1,.36366.35433,2.02615,2.02615,0,0,1,.04779.211.94185.94185,0,0,0,.08625.29956,1.00811,1.00811,0,0,0,.22495.25408,37.17881,37.17881,0,0,1,2.75193,2.89646C34.1146,39.88549,34.91419,40.79114,35.786,41.61519Z"/><path fill="url(#xJ87dL7_S5tUk7EaIsgF4i)" d="M18.31009,45.45675a3.31136,3.31136,0,0,1-.20725.88583,1.31879,1.31879,0,0,1-.11115.2037.9459.9459,0,0,1-.50506.402,1.294,1.294,0,0,1-.61152-.01828A7.62882,7.62882,0,0,1,11.766,43.84889a1.53889,1.53889,0,0,1-.28189-1.00866.59911.59911,0,0,1,.23965-.30977.93605.93605,0,0,1,.20167-.10791,2.18629,2.18629,0,0,1,1.60977.27255c-.00188.01386,1.48126.75148,1.74.90775a2.21355,2.21355,0,0,0,.56511.16961q.9573.30456,1.91378.60668a.91187.91187,0,0,1,.43649.23331A1.06705,1.06705,0,0,1,18.31009,45.45675Z"/><path fill="url(#xJ87dL7_S5tUk7EaIsgF4j)" d="M17.99169,46.54628a.9459.9459,0,0,1-.50506.402,1.294,1.294,0,0,1-.61152-.01828A7.62882,7.62882,0,0,1,11.766,43.84889a1.53889,1.53889,0,0,1-.28189-1.00866.59911.59911,0,0,1,.23965-.30977,1.52737,1.52737,0,0,0,.33673,1.16783A7.58242,7.58242,0,0,0,13.49929,45.118c.7357.51622,1.64968.03918,2.50019.42866.7121.326.60129.97789,1.19561,1.10558A1.2587,1.2587,0,0,0,17.99169,46.54628Z"/><path fill="url(#xJ87dL7_S5tUk7EaIsgF4b)" d="M22.4274,34.64157l-2.9862,9.68825-.03846.12239-.06411.20979c-.2809.81242-1.211.70051-1.894.48955-.03848-.01166-.07577-.02332-.11189-.03614a4.78377,4.78377,0,0,1-.64107-.26575c-1.10846-.57812-1.957-1.056-1.6015-2.03042l.0373-.12239.04079-.13636,2.795-9.26516a2.33146,2.33146,0,0,1,3.83591-1.01987c.02913.02681.05594.05361.08276.08275A2.33194,2.33194,0,0,1,22.4274,34.64157Z"/><path fill="url(#xJ87dL7_S5tUk7EaIsgF4k)" d="M18.419,32.39755l4.1743-6.02964,1.07166-1.548a3.42863,3.42863,0,1,1,4.10332,5.13061,5.00914,5.00914,0,0,0-.9.49184,6.84228,6.84228,0,0,0-.7599.58885c-.23442.20936-.44993.43181-.67472.64783-.22334.217-.44661.43411-.65992.65808q-.65266.66309-1.26551,1.35376l-.30432.34679-.29543.35294q-.29489.35333-.56591.72315l-.04128.056A2.38549,2.38549,0,0,1,18.419,32.39755Z"/><path fill="#172a4f" d="M27.71327,27.20405A3.03593,3.03593,0,0,1,26.416,28.67151c-1.10963.79492-2.28452,1.64928-3.36384,2.58058a15.39339,15.39339,0,0,0-1.17023,1.10612,7.98525,7.98525,0,0,0-1.35558,1.88241,11.35542,11.35542,0,0,0-.54781,1.37887,69.468,69.468,0,0,0-2.534,9.53206c-.03848-.01166-.07577-.02332-.11189-.03614a69.48875,69.48875,0,0,1,2.53512-9.53322,11.45157,11.45157,0,0,1,.55481-1.394,8.1091,8.1091,0,0,1,1.37654-1.91271,16.01831,16.01831,0,0,1,1.17722-1.112c1.08282-.93479,2.25888-1.79032,3.372-2.58641a2.84412,2.84412,0,0,0,1.25182-1.40451,2.87344,2.87344,0,0,0-.93829-2.4174l.08975-.07343A2.966,2.966,0,0,1,27.71327,27.20405Z"/><path fill="#172a4f" d="M35.6147,39.7025a3.159,3.159,0,0,1-3.17852,2.92907c-.09324,0-.18533-.00465-.27858-.01281l-.11305-.13055a3.04745,3.04745,0,0,0,3.46174-2.9116Z"/><path fill="#172a4f" d="M19.4412,44.32982l-.03846.12239a4.59616,4.59616,0,0,1-.59328.03846,4.65876,4.65876,0,0,1-3.682-1.79382l.04079-.13636a4.55383,4.55383,0,0,0,4.273,1.76933Z"/><path fill="url(#xJ87dL7_S5tUk7EaIsgF4l)" d="M25.85731,12.13709l.00156-.00023-.77421-4.85668-2.9252.46367.77418,4.85666.00156-.00024a1.47959,1.47959,0,0,0,2.92211-.46318Z"/><path fill="url(#xJ87dL7_S5tUk7EaIsgF4c)" d="M25.85731,12.13709l.00156-.00023-.77421-4.85668-2.9252.46367.77418,4.85666.00156-.00024a1.47959,1.47959,0,0,0,2.92211-.46318Z"/><path fill="url(#xJ87dL7_S5tUk7EaIsgF4e)" d="M23.44623,2.09132a3.64351,3.64351,0,0,0-3.96437,2.99437c-.185.857.12845,1.02139.12845,1.53578,0,.69023-.20221.8103-.736,1.25851a.37339.37339,0,0,0,.132.675.44079.44079,0,0,1,.36695.56064c-.10419.87679.37642.33006.25537,1.505-.04776.46356.63133.59306.91247.57624a4.01948,4.01948,0,0,0,3.40411-1.52259c.53179-.624.87509-1.11926.87509-1.11926,1.72244,0,2.07768-1.99915,2.07768-2.62319C26.898,3.58892,25.6655,2.09132,23.44623,2.09132Z"/><path fill="#805b2a" d="M21.03812,6.00625c-.09374-.024-.20086-.04466-.30313-.06145-.10362-.01693-.20807-.03045-.31262-.04192q-.31407-.03322-.62974-.03986a.24538.24538,0,1,1,.01108-.49064.27352.27352,0,0,1,.04774.00579q.32617.07092.64534.168c.10619.03294.21165.06793.31616.1065.10559.03937.20562.07875.3137.13013a.12032.12032,0,0,1-.08142.22525Z"/><path fill="#f0af13" d="M20.78734,9.28911c.03977-.04263.00621-.1327-.0439-.11858a2.64818,2.64818,0,0,1-1.22809.01572c-.12619-.02492-.22265.13871-.21056.30224h0a.26184.26184,0,0,0,.27686.2635A1.655,1.655,0,0,0,20.78734,9.28911Z"/><path fill="url(#xJ87dL7_S5tUk7EaIsgF4m)" d="M25.41254,7.50291a.60068.60068,0,0,0-.52624-.47442.43248.43248,0,0,0-.337.19339c-.13836.184-.258.4935-.02075.65671.07352.05058.174.07805.20675.16645.03534.09529-.04944.25232-.09424.33759a.9707.9707,0,0,0,.30883-.08689A.70753.70753,0,0,0,25.41254,7.50291Z"/><path fill="#fff" d="M21.47208,7.11767a4.08688,4.08688,0,0,1-1.27927.43335c-.054.00913-.03822-.0108-.05977-.04816a.34892.34892,0,0,1-.03488-.05728,2.05285,2.05285,0,0,1-.06556-.22746A1.29554,1.29554,0,0,1,20.026,6.632a1.984,1.984,0,0,1,.08634-.28806c.00995-.02656.02075-.054.03236-.08135a1.525,1.525,0,0,1,1.35566.75628A.07034.07034,0,0,1,21.47208,7.11767Z"/><path fill="url(#xJ87dL7_S5tUk7EaIsgF4n)" d="M20.63612,6.92507a.58239.58239,0,0,1-.50308.57779.15021.15021,0,0,1-.03488-.05728,2.05285,2.05285,0,0,1-.06556-.22746A1.29554,1.29554,0,0,1,20.026,6.632a1.984,1.984,0,0,1,.08634-.28806A.58377.58377,0,0,1,20.63612,6.92507Z"/><path fill="url(#xJ87dL7_S5tUk7EaIsgF4o)" d="M20.34638,6.92507a.29405.29405,0,0,1-.29469.29388l-.01909-.00083A1.29554,1.29554,0,0,1,20.026,6.632a.13.13,0,0,1,.02574-.00166A.29476.29476,0,0,1,20.34638,6.92507Z"/><circle cx="20.346" cy="6.722" r=".127" fill="#fff"/><path fill="#805b2a" d="M21.53915,7.08365a1.46932,1.46932,0,0,0-1.3944-.82067C19.171,6.28353,20.89815,6.3776,21.53915,7.08365Z"/><g><path fill="url(#xJ87dL7_S5tUk7EaIsgF4d)" d="M31.81187,7.77041a3.57906,3.57906,0,0,0,.04786-1.16758l-.02086.14867A6.73656,6.73656,0,0,1,29.99105,9.656c.881-2.45107.99321-7.00177-2.34711-5.81224a.48094.48094,0,0,1-.11483.04211l-.00272.00188-.00028-.00112a.54415.54415,0,0,1-.42761-.08014.65946.65946,0,0,1-.21773-.24232.68986.68986,0,0,1-.0115-.63348c.41426-.7496,3.30929-2.97944,5.03264-.93664C33.36393,3.72731,33.07527,5.93475,31.81187,7.77041Z"/><path fill="url(#xJ87dL7_S5tUk7EaIsgF4p)" d="M31.81187,7.77041a3.57906,3.57906,0,0,0,.04786-1.16758c-.01995-.76763-.27619-6.21458-4.979-3.0387a.68986.68986,0,0,1-.0115-.63348c.41426-.7496,3.30929-2.97944,5.03264-.93664C33.36393,3.72731,33.07527,5.93475,31.81187,7.77041Z"/><path fill="url(#xJ87dL7_S5tUk7EaIsgF4q)" d="M27.34053,2.70905a.70239.70239,0,0,0-.43427.055l-.00011-.00019-.00227.00133a.7114.7114,0,0,0-.1113.06594l-.34.20136a.70993.70993,0,0,0-.14771.08749l-.0011.00067.00006.00012a.70568.70568,0,0,0,.67433,1.22209l.00241.00435.02584-.01483a.70942.70942,0,0,0,.1479-.08492l.39-.22391.00086-.00048.00381-.00221,0-.0001a.70642.70642,0,0,0-.20844-1.3117Z"/><path fill="url(#xJ87dL7_S5tUk7EaIsgF4r)" d="M27.34053,2.70905a.70239.70239,0,0,0-.43427.055l-.00011-.00019-.00227.00133a.7114.7114,0,0,0-.1113.06594l-.34.20136a.70993.70993,0,0,0-.14771.08749l-.0011.00067.00006.00012a.70568.70568,0,0,0,.67433,1.22209l.00241.00435.02584-.01483a.70942.70942,0,0,0,.1479-.08492l.39-.22391.00086-.00048.00381-.00221,0-.0001a.70642.70642,0,0,0-.20844-1.3117Z"/><path fill="url(#xJ87dL7_S5tUk7EaIsgF4s)" d="M19.188,4.50652c1.654.56371,2.5263-.62532,3.75376.80734.94506,1.103.2029,1.59413.80075,2.50086.04484.068.14794.10823.15918.02755.38363-2.75408,2.901-.26765.91834.71272,0,0-.05863.27535-.13422.54017-.12232.42853.61777,1.01362.81354,1.16089.151.11358.14471-.35461.22892-.76914.16849-.82942,1.45561-.17739,2.044-3.6696a3.78721,3.78721,0,0,0-4.90156-4.07743c-2.00958-1.15772-4.39717.61533-4.39717,2.01872C18.47356,4.03638,18.80762,4.37688,19.188,4.50652Z"/></g><path fill="url(#xJ87dL7_S5tUk7EaIsgF4t)" d="M12.42921,28.92749a.36474.36474,0,0,0,.52174.01617c.14446-.12385.07981-.23906.21141-.376.11915-.124.3404-.33008.34965-.50736a8.64623,8.64623,0,0,0-.042-.86875,1.60046,1.60046,0,0,1,.13458-.5241.51939.51939,0,0,0-.06132-.51562.44856.44856,0,0,0-.35754-.09822,1.297,1.297,0,0,0-1.10422.90549,2.12713,2.12713,0,0,0,.00993,1.13384c.03105.11915.08206.23084.10958.3512A.74742.74742,0,0,0,12.42921,28.92749Z"/><path fill="url(#xJ87dL7_S5tUk7EaIsgF4u)" d="M12.42921,28.92749a.36474.36474,0,0,0,.52174.01617c.14446-.12385.07981-.23906.21141-.376.11915-.124.3404-.33008.34965-.50736a8.64623,8.64623,0,0,0-.042-.86875,1.60046,1.60046,0,0,1,.13458-.5241.51939.51939,0,0,0-.06132-.51562.44856.44856,0,0,0-.35754-.09822,1.297,1.297,0,0,0-1.10422.90549,2.12713,2.12713,0,0,0,.00993,1.13384c.03105.11915.08206.23084.10958.3512A.74742.74742,0,0,0,12.42921,28.92749Z"/><path fill="url(#xJ87dL7_S5tUk7EaIsgF4v)" d="M16.0559,25.45431l-1.25108-1.20643s-.59764.5147-.91744.77059l-.00373.00229c-.13522.09206-.20746.16561-.33649.26828l-.45431.36146-.4969.39535a1.94445,1.94445,0,0,0-.51395.52885,1.95217,1.95217,0,0,0-.15866,1.0228l.035,1.33624a.89384.89384,0,0,0,.03774.282.30226.30226,0,0,0,.19214.19649.29134.29134,0,0,0,.2754-.09278.65375.65375,0,0,0,.13879-.26839,4.78345,4.78345,0,0,0,.12565-1.08982,2.10916,2.10916,0,0,1,.28129-1.04986.58466.58466,0,0,1,.28465-.24517.29158.29158,0,0,1,.3387.103c.08613.1441-.00761.3245-.09369.46864a1.7077,1.7077,0,0,0-.23139.53716.711.711,0,0,0,.10482.561.36965.36965,0,0,0,.46892.12486.61064.61064,0,0,0,.30178-.40408,5.2081,5.2081,0,0,1,.16591-.702c.14834-.2765.45755-.37417.71329-.52013a1.22331,1.22331,0,0,0,.55-.67988.75161.75161,0,0,0,.02945-.32905Z"/><path fill="url(#xJ87dL7_S5tUk7EaIsgF4w)" d="M21.17549,20.72642a3.29925,3.29925,0,0,1-.34235.89713,4.65891,4.65891,0,0,1-.50251.742,6.21357,6.21357,0,0,1-1.31453,1.18419c-.50106.33383-1.05758.61393-1.57546.93147-.25773.15994-.511.32422-.75329.49907-.24685.17049-.48224.35206-.71192.53916l-.05.04075A.86023.86023,0,0,1,14.739,24.32186c.39117-.44025.7851-.87786,1.17085-1.32337l1.16269-1.33127c.3874-.44392.77732-.88538,1.15532-1.33841.38042-.45067.7641-.89819,1.13593-1.35719a1.13028,1.13028,0,0,1,1.98406.94509Z"/><path fill="url(#xJ87dL7_S5tUk7EaIsgF4x)" d="M24.71005,15.00512a12.3117,12.3117,0,0,1-.721,1.44c-.26322.46654-.55251.91773-.84988,1.36418-.14686.22428-.30807.44014-.46139.66062-.16231.2152-.32158.43219-.49251.64232a11.19608,11.19608,0,0,1-1.10348,1.21486,1.11116,1.11116,0,0,1-1.85392-.99648l.015-.08619a9.18433,9.18433,0,0,1,.44778-1.60092c.04324-.12993.0959-.2543.146-.38019.05119-.12523.09906-.25244.153-.37606.1134-.244.21682-.49385.33842-.733.23858-.481.48738-.95608.76924-1.41164a9.75838,9.75838,0,0,1,.93258-1.3155l.03756-.04346a1.57089,1.57089,0,0,1,2.64264,1.62145Z"/><path fill="url(#xJ87dL7_S5tUk7EaIsgF4y)" d="M35.362,28.85558a.34979.34979,0,0,1-.33043-.23539l-.203-.58631a.34968.34968,0,0,1,.66087-.22879l.20295.58631a.35.35,0,0,1-.33044.46418Z"/><path fill="url(#xJ87dL7_S5tUk7EaIsgF4y)" d="M34.95339,29.41765a.34971.34971,0,0,1-.32145-.21183l-.29924-.69672a.34964.34964,0,1,1,.64254-.27591l.29925.69672a.34979.34979,0,0,1-.3211.48774Z"/><path fill="url(#xJ87dL7_S5tUk7EaIsgF4y)" d="M34.55244,29.90665a.3497.3497,0,0,1-.301-.17108l-.41291-.69525a.34971.34971,0,0,1,.60134-.35718l.41291.69524a.34976.34976,0,0,1-.30033.52827Z"/><path fill="url(#xJ87dL7_S5tUk7EaIsgF4z)" d="M34.03917,30.30413a.34924.34924,0,0,1-.29515-.16164l-.39338-.61682a.34967.34967,0,0,1,.58962-.37608l.39338.61682a.34968.34968,0,0,1-.29447.53772Z"/><path fill="url(#xJ87dL7_S5tUk7EaIsgF4A)" d="M35.69246,28.3914l-.20295-.58631a.34968.34968,0,0,0-.66087.22879l.01515.04376a.34952.34952,0,0,0-.51109.43146l.041.09536a.34875.34875,0,0,0-.53514.43586l.022.037a.34879.34879,0,0,0-.526.44835l.39338.61682a.34918.34918,0,0,0,.62452-.30189.34668.34668,0,0,0,.51314-.43488.34886.34886,0,0,0,.409-.47581l-.04334-.10091a.3486.3486,0,0,0,.46131-.4376Z"/><path fill="url(#xJ87dL7_S5tUk7EaIsgF4B)" d="M33.86631,26.82866a1.32193,1.32193,0,0,0-1.19-.99134A1.7621,1.7621,0,0,0,32.2567,27.422a1.76892,1.76892,0,0,1-.07577.73346c-.06643.17316-.12912.348-.19642.5222a.37828.37828,0,0,0,.7437.09884l.43119-.86331-.3414-.44752C33.30585,27.19584,33.86631,26.82866,33.86631,26.82866Z"/><path fill="url(#xJ87dL7_S5tUk7EaIsgF4C)" d="M33.86631,26.82866a1.32193,1.32193,0,0,0-1.19-.99134A1.7621,1.7621,0,0,0,32.2567,27.422a1.76892,1.76892,0,0,1-.07577.73346c-.06643.17316-.12912.348-.19642.5222a.37828.37828,0,0,0,.7437.09884l.43119-.86331-.3414-.44752C33.30585,27.19584,33.86631,26.82866,33.86631,26.82866Z"/><path fill="url(#xJ87dL7_S5tUk7EaIsgF4f)" d="M28.2844,20.677c.36595-2.81741-.45711-10.32369-3.254-9.55832a4.821,4.821,0,0,0-2.963,2.265c-.61093.76529-1.70464,2.19088-1.89643,2.45652a1.70274,1.70274,0,0,0,1.1109,2.54246c.3964,2.62784,1.75416,3.00483,1.40488,7.49241a.27431.27431,0,0,0,.32422.28186c2.96046-.34079,4.92552-.72059,5.93369-1.77353C29.18914,24.12806,28.12986,21.86682,28.2844,20.677Z"/><path fill="url(#xJ87dL7_S5tUk7EaIsgF4D)" d="M28.2844,20.677c.36595-2.81741-.45711-10.32369-3.254-9.55832a4.821,4.821,0,0,0-2.963,2.265c-.61093.76529-1.70464,2.19088-1.89643,2.45652a1.70274,1.70274,0,0,0,1.1109,2.54246c.3964,2.62784,1.75416,3.00483,1.40488,7.49241a.27431.27431,0,0,0,.32422.28186c2.96046-.34079,4.92552-.72059,5.93369-1.77353C29.18914,24.12806,28.12986,21.86682,28.2844,20.677Z"/><path fill="url(#xJ87dL7_S5tUk7EaIsgF4E)" d="M32.50173,18.50745a3.45826,3.45826,0,0,1,.60178.76176,4.74485,4.74485,0,0,1,.38544.81011,5.94693,5.94693,0,0,1,.35,1.71427c.03816.589-.00811,1.1968.00306,1.79179.0066.29728.01926.59319.04665.88582.0213.294.05808.58451.10256.87332l.008.05212a.79031.79031,0,0,1-.73457.86918.86653.86653,0,0,1-.9436-.5481c-.18108-.557-.35846-1.11489-.54687-1.67028l-.55788-1.66782c-.18619-.55589-.36895-1.11254-.56783-1.66559-.19561-.55379-.38681-1.10855-.594-1.65974a1.00963,1.00963,0,0,1,.72244-1.30537,1.24337,1.24337,0,0,1,1.19776.26374Z"/><g><path fill="#3f1980" d="M24.4822,13.70475h3.38366c.06944.313.13014.64179.18241.97741.05566.3573.10174.7223.13861,1.08431.07.68613.10648,1.36142.11192,1.95338.00388.35021.03051.69764.02074.97693a8.00149,8.00149,0,0,1-1.54049-1.0797,8.70111,8.70111,0,0,1-1.20966-1.319,6.79278,6.79278,0,0,1-.7913-1.353,3.25565,3.25565,0,0,1-.29472-1.19726C24.4822,13.73272,24.4822,13.71873,24.4822,13.70475Z" opacity=".002"/><path fill="#3f1980" d="M24.4822,13.70475h3.38366c.06958.31364.13039.644.18272.98154.05552.35791.1015.72389.1383,1.0869.06846.6735.10466,1.33656.11089,1.919.00426.34376.02959.68414.02054.95947a8.03806,8.03806,0,0,1-1.53219-1.07487,8.82943,8.82943,0,0,1-1.20977-1.312,6.84026,6.84026,0,0,1-.79285-1.3368,3.16845,3.16845,0,0,1-.30013-1.18017C24.4822,13.73272,24.4822,13.71873,24.4822,13.70475Z" opacity=".004"/><path fill="#3f1980" d="M24.4822,13.70475h3.38366c.06972.31428.13063.64613.183.98567.05537.35851.10125.72548.138,1.08948.067.66088.10284,1.31171.10985,1.88471.00466.33731.02869.67063.02035.942a8.0772,8.0772,0,0,1-1.52389-1.07,8.96383,8.96383,0,0,1-1.20987-1.305,6.89321,6.89321,0,0,1-.79441-1.32061,3.08475,3.08475,0,0,1-.30554-1.16308C24.4822,13.73272,24.4822,13.71873,24.4822,13.70475Z" opacity=".005"/><path fill="#3f1980" d="M24.4822,13.70475h3.38366c.06986.31491.13088.64829.18336.9898.05523.35912.101.72706.13766,1.09206.06544.64826.101,1.28686.10882,1.85038.005.33086.02777.65713.02014.92457a8.11763,8.11763,0,0,1-1.51558-1.06522,9.10323,9.10323,0,0,1-1.21-1.29807,6.95206,6.95206,0,0,1-.796-1.3044,3.00475,3.00475,0,0,1-.31095-1.146C24.4822,13.73272,24.4822,13.71873,24.4822,13.70475Z" opacity=".007"/><path fill="#3f1980" d="M24.4822,13.70475h3.38366c.07.31554.13112.65046.18367.99393.05509.35973.10076.72865.13735,1.09464.06393.63564.0992,1.262.10778,1.816.00543.3244.02686.64363.01995.90712a8.16,8.16,0,0,1-1.50728-1.0604,9.24885,9.24885,0,0,1-1.21007-1.2911,7.01661,7.01661,0,0,1-.79753-1.28821,2.9284,2.9284,0,0,1-.31636-1.12891C24.4822,13.73272,24.4822,13.71873,24.4822,13.70475Z" opacity=".009"/><path fill="#3f1980" d="M24.4822,13.70475h3.38366c.07014.31618.13137.65263.184.99806.055.36034.10051.73024.137,1.09722.06242.623.09738,1.23716.10675,1.78173.00582.31794.02595.63011.01975.88966a8.20439,8.20439,0,0,1-1.499-1.05557,9.40247,9.40247,0,0,1-1.21017-1.28414,7.1517,7.1517,0,0,1-.79909-1.272,2.8725,2.8725,0,0,1-.32177-1.11182C24.4822,13.73272,24.4822,13.71873,24.4822,13.70475Z" opacity=".011"/><path fill="#3f1980" d="M24.4822,13.70475h3.38366c.07028.31681.13161.6548.1843,1.00219.05481.36094.10027.73183.13672,1.0998.06091.6104.09556,1.21231.10571,1.7474.00621.31149.025.61661.01956.87221a8.25124,8.25124,0,0,1-1.49068-1.05075,9.56207,9.56207,0,0,1-1.21027-1.27717,7.23826,7.23826,0,0,1-.80065-1.25582,2.80381,2.80381,0,0,1-.32718-1.09474C24.4822,13.73272,24.4822,13.71873,24.4822,13.70475Z" opacity=".012"/><path fill="#3f1980" d="M24.4822,13.70475h3.38366c.07042.31745.13186.657.18462,1.00632.05467.36155.1.73342.1364,1.10238.0594.59778.09374,1.18746.10468,1.71307.00659.305.02412.60311.01936.85476a8.30021,8.30021,0,0,1-1.48238-1.04592,9.7295,9.7295,0,0,1-1.21037-1.27022,7.33141,7.33141,0,0,1-.80221-1.23962,2.73759,2.73759,0,0,1-.33259-1.07765C24.4822,13.73272,24.4822,13.71873,24.4822,13.70475Z" opacity=".014"/><path fill="#3f1980" d="M24.4822,13.70475h3.38366c.07056.31808.1321.65914.18494,1.01045.05452.36216.09977.735.13608,1.105.05789.58516.09192,1.16261.10364,1.67874.007.29859.02322.58961.01917.83731a8.351,8.351,0,0,1-1.47408-1.0411,9.905,9.905,0,0,1-1.21047-1.26325,7.43259,7.43259,0,0,1-.80377-1.22342,2.67435,2.67435,0,0,1-.338-1.06057C24.4822,13.73272,24.4822,13.71873,24.4822,13.70475Z" opacity=".016"/><path fill="#3f1980" d="M24.4822,13.70475h3.38366c.0707.31871.13235.6613.18525,1.01458.05439.36277.09953.7366.13577,1.10754.05638.57255.0901,1.13776.10261,1.64441.00737.29214.0223.5761.019.81986a8.40382,8.40382,0,0,1-1.46578-1.03628,10.09008,10.09008,0,0,1-1.21057-1.25628,7.54135,7.54135,0,0,1-.80533-1.20723,2.61369,2.61369,0,0,1-.34341-1.04348C24.4822,13.73272,24.4822,13.71873,24.4822,13.70475Z" opacity=".018"/><path fill="#3f1980" d="M24.4822,13.70475h3.38366c.07084.31935.1326.66347.18557,1.01871.05424.36337.09928.73819.13545,1.11012.05486.55993.08828,1.11291.10157,1.61008.00777.28569.02139.5626.01878.80241a8.46,8.46,0,0,1-1.45748-1.03145,10.28408,10.28408,0,0,1-1.21067-1.24933,7.66,7.66,0,0,1-.80689-1.191,2.5559,2.5559,0,0,1-.34882-1.02639C24.4822,13.73272,24.4822,13.71873,24.4822,13.70475Z" opacity=".019"/><path fill="#3f1980" d="M24.4822,13.70475h3.38366c.071.32.13284.66564.18588,1.02285.05411.364.099.73976.13514,1.1127.05335.5473.08646,1.088.10054,1.57574.00815.27923.02048.5491.01857.785a8.51871,8.51871,0,0,1-1.44917-1.02663A10.48814,10.48814,0,0,1,25.64605,15.932a7.78843,7.78843,0,0,1-.80845-1.17483,2.50071,2.50071,0,0,1-.35423-1.00931C24.4822,13.73272,24.4822,13.71873,24.4822,13.70475Z" opacity=".021"/><path fill="#3f1980" d="M24.4822,13.70475h3.38366c.07112.32062.13309.66781.1862,1.027.054.36458.09879.74135.13482,1.11528.05184.53468.08464,1.0632.0995,1.54142.00854.27277.01957.53558.01838.7675a8.57993,8.57993,0,0,1-1.44087-1.02181A10.7032,10.7032,0,0,1,25.653,15.89873a7.85653,7.85653,0,0,1-.81-1.15864,2.43528,2.43528,0,0,1-.35964-.99222C24.4822,13.73272,24.4822,13.71873,24.4822,13.70475Z" opacity=".023"/><path fill="#3f1980" d="M24.4822,13.70475h3.38366c.07126.32125.13333.67.18652,1.03111.05382.36519.09854.74294.1345,1.11786.05033.52206.08282,1.03835.09847,1.50709.00893.26632.01865.52208.01818.75a8.644,8.644,0,0,1-1.43257-1.017,10.931,10.931,0,0,1-1.211-1.22843,8.01884,8.01884,0,0,1-.81157-1.14245,2.38783,2.38783,0,0,1-.36505-.97513C24.4822,13.73272,24.4822,13.71873,24.4822,13.70475Z" opacity=".025"/><path fill="#3f1980" d="M24.4822,13.70475h3.38366c.0714.32188.13358.67215.18683,1.03524.05368.36579.0983.74453.13419,1.12044.04882.50944.081,1.0135.09743,1.47276.00932.25987.01775.50858.018.73259A8.712,8.712,0,0,1,26.878,17.05363,11.1709,11.1709,0,0,1,25.667,15.83216a8.19915,8.19915,0,0,1-.81313-1.12624,2.344,2.344,0,0,1-.37046-.958C24.4822,13.73272,24.4822,13.71873,24.4822,13.70475Z" opacity=".026"/><path fill="#3f1980" d="M24.4822,13.70475h3.38366c.07155.32252.13382.67431.18715,1.03937.05354.3664.09806.74612.13387,1.123.04731.49682.07918.98865.0964,1.43843.0097.25342.01683.49507.01779.71514a8.78278,8.78278,0,0,1-1.416-1.00732,11.42562,11.42562,0,0,1-1.21117-1.21451,8.40006,8.40006,0,0,1-.81469-1.11005,2.30326,2.30326,0,0,1-.37587-.941C24.4822,13.73272,24.4822,13.71873,24.4822,13.70475Z" opacity=".028"/><path fill="#3f1980" d="M27.86586,13.70475c.07169.32315.13407.67648.18747,1.0435s.09781.74771.13355,1.1256c.07149.75579.1083,1.50036.113,2.10179a8.85707,8.85707,0,0,1-1.40767-1.0025A11.6955,11.6955,0,0,1,25.6809,15.7656a4.61361,4.61361,0,0,1-1.19753-2.01773c-.00117-.01515-.00117-.02914-.00117-.04312h3.38366Z" opacity=".03"/></g><path fill="url(#xJ87dL7_S5tUk7EaIsgF4F)" d="M27.2103,12.3291a15.444,15.444,0,0,1,1.31057,1.23982c.41749.43142.81287.88351,1.20143,1.342.19582.22781.3795.467.56984.69992.18273.24006.36806.4777.54349.7246a13.87887,13.87887,0,0,1,.98661,1.54315,1.10234,1.10234,0,0,1-1.48677,1.49685l-.07093-.03831a11.30069,11.30069,0,0,1-1.542-1.02308c-.1235-.09-.239-.18738-.35669-.28276-.11674-.09628-.23631-.18989-.35072-.28835-.22418-.20126-.45678-.39461-.674-.60237-.43835-.41187-.868-.83186-1.26974-1.27807A12.22527,12.22527,0,0,1,24.94,14.45492l-.02863-.04267a1.56769,1.56769,0,0,1,2.299-2.08315Z"/><path fill="url(#xJ87dL7_S5tUk7EaIsgF4G)" d="M29.53056,14.82788a5.15725,5.15725,0,0,1-2.18366,2.10368.35223.35223,0,0,1-.42317-.06119l-1.94308-2.00044a1.76657,1.76657,0,0,1,.03634-2.498h0a1.76657,1.76657,0,0,1,2.498.03633l1.95569,2.01343A.3514.3514,0,0,1,29.53056,14.82788Z"/><path fill="url(#xJ87dL7_S5tUk7EaIsgF4H)" d="M35.48879,27.779l-.53485-1.294a3.62164,3.62164,0,0,0-.95856-.96867l-.0429-.43831-1.80617.10069.30209.89093-.04855.4366a2.17922,2.17922,0,0,0,.11028.96539c.06354.18045.13948.3926.21669.60023a.35411.35411,0,0,0,.02214.084l.54283,1.31331a.35656.35656,0,0,0,.45342.19886.37281.37281,0,0,0,.199-.49091l-.00615-.01487a.35652.35652,0,0,0,.26767.05517.3603.3603,0,0,0,.05427-.01529.37285.37285,0,0,0,.19908-.491l-.00613-.01481a.35255.35255,0,0,0,.32193.03987.37285.37285,0,0,0,.19913-.49091l-.00615-.0149a.35267.35267,0,0,0,.32175.03993A.37305.37305,0,0,0,35.48879,27.779Z"/></svg>