<?xml version="1.0" standalone="no"?>
<!DOCTYPE svg PUBLIC "-//W3C//DTD SVG 20010904//EN"
 "http://www.w3.org/TR/2001/REC-SVG-20010904/DTD/svg10.dtd">
<svg version="1.0" xmlns="http://www.w3.org/2000/svg"
 width="180.000000pt" height="180.000000pt" viewBox="0 0 180.000000 180.000000"
 preserveAspectRatio="xMidYMid meet">

<g transform="translate(0.000000,180.000000) scale(0.100000,-0.100000)"
fill="#fff" stroke="none">
<path d="M50 972 l0 -822 500 0 500 0 0 158 0 157 -143 159 -142 160 -3 -157
-3 -157 -194 0 -195 0 0 503 0 502 -160 160 -160 160 0 -823z"/>
<path d="M760 1493 l0 -158 143 -159 142 -160 3 157 3 157 194 0 195 0 0 -503
0 -502 160 -160 160 -160 0 823 0 822 -500 0 -500 0 0 -157z"/>
</g>
</svg>
