<?xml version="1.0" standalone="no"?>
<!DOCTYPE svg PUBLIC "-//W3C//DTD SVG 20010904//EN"
 "http://www.w3.org/TR/2001/REC-SVG-20010904/DTD/svg10.dtd">
<svg version="1.0" xmlns="http://www.w3.org/2000/svg"
 width="32.000000pt" height="32.000000pt" viewBox="0 0 32.000000 32.000000"
 preserveAspectRatio="xMidYMid meet">

<g transform="translate(0.000000,32.000000) scale(0.100000,-0.100000)"
fill="#fff" stroke="none">
<path d="M10 172 l0 -142 85 0 c85 0 85 0 85 26 0 14 -9 37 -20 51 l-20 26 0
-27 c0 -24 -3 -26 -40 -26 l-40 0 0 93 c0 87 -2 95 -25 117 l-25 23 0 -141z"/>
<path d="M140 264 c0 -14 9 -37 20 -51 l20 -26 0 27 c0 24 3 26 40 26 l40 0 0
-93 c0 -87 2 -95 25 -117 l25 -23 0 141 0 142 -85 0 c-85 0 -85 0 -85 -26z"/>
</g>
</svg>
