<?xml version="1.0" standalone="no"?>
<!DOCTYPE svg PUBLIC "-//W3C//DTD SVG 20010904//EN"
 "http://www.w3.org/TR/2001/REC-SVG-20010904/DTD/svg10.dtd">
<svg version="1.0" xmlns="http://www.w3.org/2000/svg"
 width="60.000000pt" height="60.000000pt" viewBox="0 0 60.000000 60.000000"
 preserveAspectRatio="xMidYMid meet">

<g transform="translate(0.000000,60.000000) scale(0.100000,-0.100000)"
fill="#fff" stroke="none">
<path d="M64 508 c-4 -6 4 -19 19 -30 14 -10 56 -54 92 -97 l65 -79 0 -101 c0
-56 4 -101 9 -101 5 0 32 5 60 12 l51 11 0 90 0 89 65 79 c36 43 78 87 92 97
51 37 25 42 -217 42 -162 0 -231 -3 -236 -12z m386 -32 c0 -3 -29 -39 -65 -81
l-65 -77 0 -84 c0 -77 -2 -84 -20 -84 -18 0 -20 7 -20 84 l0 84 -65 77 c-36
42 -65 78 -65 81 0 2 68 4 150 4 83 0 150 -2 150 -4z"/>
</g>
</svg>
